<?xml version="1.0" encoding="UTF-8" ?>
<!DOCTYPE svg PUBLIC "-//W3C//DTD SVG 1.1//EN" "http://www.w3.org/Graphics/SVG/1.1/DTD/svg11.dtd">
<svg width="549pt" height="132pt" viewBox="0 0 549 132" version="1.1" xmlns="http://www.w3.org/2000/svg">
<g id="#ffffffff">
</g>
<g id="#020202ff">
<path fill="#020202" opacity="1.00" d=" M 42.12 39.82 C 49.21 37.30 57.49 37.37 64.38 40.52 C 70.14 43.17 73.09 49.44 73.76 55.47 C 71.80 55.47 69.84 55.47 67.88 55.46 C 67.33 50.42 64.45 45.26 59.31 43.79 C 52.33 41.82 43.14 42.10 38.49 48.51 C 34.58 54.32 34.83 61.84 35.74 68.49 C 36.59 73.87 40.31 78.91 45.78 80.21 C 51.36 81.41 57.95 81.47 62.57 77.62 C 65.96 74.88 67.37 70.57 68.17 66.44 C 61.34 66.41 54.52 66.43 47.70 66.43 C 47.70 65.02 47.71 63.62 47.72 62.22 C 56.35 62.22 64.98 62.26 73.61 62.20 C 73.64 69.62 73.64 77.04 73.61 84.46 C 71.92 84.45 70.22 84.45 68.53 84.45 C 68.53 80.91 68.61 77.37 68.44 73.83 C 66.76 78.80 63.04 83.20 57.87 84.66 C 49.80 86.98 39.86 85.40 34.36 78.60 C 29.47 72.62 28.71 64.36 29.58 56.96 C 30.42 49.60 34.98 42.44 42.12 39.82 Z" />
<path fill="#020202" opacity="1.00" d=" M 83.28 39.28 C 91.16 39.42 99.04 39.10 106.91 39.46 C 111.79 39.67 116.86 42.84 117.80 47.89 C 119.63 54.02 115.95 60.82 109.85 62.69 C 112.93 63.60 115.86 65.78 116.42 69.13 C 117.13 74.24 116.28 79.49 117.62 84.54 C 115.72 84.51 113.82 84.48 111.92 84.41 C 111.11 79.95 111.58 75.41 111.13 70.93 C 110.70 67.34 107.49 64.55 103.91 64.42 C 98.90 64.08 93.87 64.34 88.85 64.29 C 88.87 71.01 88.82 77.74 88.88 84.47 C 87.04 84.50 85.19 84.53 83.35 84.58 C 83.18 69.48 83.31 54.38 83.28 39.28 M 88.86 43.81 C 88.83 49.16 88.89 54.52 88.82 59.88 C 94.85 60.11 100.97 60.42 106.96 59.61 C 112.03 58.65 113.29 52.22 111.66 48.05 C 110.74 45.32 107.78 44.03 105.09 43.90 C 99.68 43.65 94.27 43.87 88.86 43.81 Z" />
<path fill="#020202" opacity="1.00" d=" M 127.28 39.28 C 138.42 39.31 149.55 39.32 160.68 39.28 C 160.67 40.80 160.67 42.31 160.67 43.83 C 151.40 43.77 142.13 43.81 132.86 43.80 C 132.85 48.84 132.86 53.88 132.85 58.92 C 141.46 59.04 150.08 58.77 158.69 59.06 C 158.66 60.54 158.64 62.03 158.62 63.51 C 150.14 63.52 141.65 63.40 133.16 63.55 C 132.42 68.80 133.07 74.46 132.86 79.87 C 142.18 79.91 151.50 79.88 160.82 79.89 C 160.85 81.42 160.88 82.95 160.91 84.49 C 149.68 84.49 138.44 84.56 127.21 84.45 C 127.36 69.39 127.22 54.34 127.28 39.28 Z" />
<path fill="#020202" opacity="1.00" d=" M 169.68 39.35 C 180.86 39.23 192.04 39.35 203.22 39.30 C 203.22 40.80 203.23 42.30 203.24 43.80 C 193.98 43.78 184.72 43.84 175.47 43.76 C 175.34 48.83 175.44 53.91 175.40 58.98 C 184.01 58.98 192.62 58.78 201.22 59.08 C 201.21 60.55 201.20 62.02 201.20 63.48 C 192.60 63.49 184.01 63.51 175.42 63.47 C 175.40 68.95 175.40 74.44 175.42 79.92 C 184.74 79.85 194.07 79.91 203.39 79.88 C 203.41 81.42 203.43 82.96 203.45 84.51 C 192.20 84.49 180.95 84.52 169.71 84.49 C 169.72 69.44 169.76 54.40 169.68 39.35 Z" />
<path fill="#020202" opacity="1.00" d=" M 212.41 39.27 C 215.56 39.31 218.71 39.32 221.86 39.28 C 229.67 52.93 237.85 66.39 245.27 80.25 C 245.38 66.60 245.25 52.95 245.33 39.29 C 247.03 39.29 248.74 39.28 250.46 39.25 L 250.46 39.51 C 250.73 54.44 250.77 69.36 250.44 84.29 C 247.35 84.61 244.25 84.59 241.16 84.36 C 233.80 70.57 225.13 57.49 218.16 43.49 C 217.95 57.15 218.13 70.81 218.06 84.48 C 216.18 84.49 214.29 84.51 212.41 84.54 C 212.37 69.45 212.37 54.36 212.41 39.27 Z" />
</g>
<g id="#1ed760ff">
<path fill="#1ed760" opacity="1.00" d=" M 323.51 38.72 C 332.86 37.76 343.44 37.66 351.29 43.63 C 358.75 49.59 359.98 60.29 357.98 69.07 C 356.42 75.78 351.14 81.39 344.51 83.30 C 336.29 85.71 327.37 85.73 319.08 83.63 C 312.23 81.91 306.41 76.52 304.64 69.62 C 302.58 61.66 303.26 52.21 308.91 45.82 C 312.57 41.57 318.09 39.52 323.51 38.72 M 325.35 51.51 C 315.90 53.37 315.80 69.55 325.08 71.74 C 329.27 72.79 333.80 72.79 337.95 71.55 C 346.58 68.98 346.36 53.83 337.54 51.63 C 333.57 50.57 329.34 50.51 325.35 51.51 Z" />
<path fill="#1ed760" opacity="1.00" d=" M 429.58 41.53 C 435.86 38.25 443.18 37.95 450.10 38.40 C 457.91 38.95 465.61 42.55 470.40 48.85 C 466.23 50.98 462.08 53.13 457.99 55.40 C 453.01 50.77 445.20 49.09 438.94 51.95 C 431.65 55.72 431.92 68.15 439.63 71.29 C 444.95 73.21 451.96 73.21 456.15 68.89 C 452.16 68.77 448.17 68.85 444.18 68.84 C 444.17 65.49 444.18 62.14 444.20 58.79 C 452.95 58.74 461.71 58.88 470.47 58.71 C 470.78 67.31 470.56 75.93 470.58 84.54 C 466.95 84.48 463.32 84.49 459.69 84.51 C 459.32 80.97 458.88 77.43 458.43 73.90 C 456.86 77.57 454.52 81.10 450.77 82.81 C 442.29 86.88 430.85 85.81 424.36 78.59 C 418.81 72.57 417.65 63.66 419.22 55.89 C 420.38 49.91 424.11 44.35 429.58 41.53 Z" />
<path fill="#1ed760" opacity="1.00" d=" M 250.46 39.51 C 266.51 39.41 282.57 39.59 298.63 39.42 C 298.78 43.27 298.64 47.13 298.74 50.99 C 287.48 51.34 276.21 51.00 264.94 51.16 C 264.91 53.32 264.96 55.47 265.09 57.62 C 275.61 57.65 286.14 57.61 296.66 57.30 C 296.65 61.35 296.65 65.40 296.67 69.45 C 286.10 69.17 275.51 68.87 264.94 69.16 C 264.87 74.30 265.03 79.43 264.91 84.56 C 260.09 84.53 255.25 84.31 250.43 84.68 L 250.44 84.29 C 250.77 69.36 250.73 54.44 250.46 39.51 Z" />
<path fill="#1ed760" opacity="1.00" d=" M 363.78 39.50 C 373.19 39.44 382.59 39.56 391.99 39.55 C 397.21 39.66 402.73 40.03 407.36 42.68 C 416.16 47.79 415.73 63.06 406.41 67.37 C 405.01 68.04 403.53 68.51 402.08 69.01 C 405.58 74.28 409.42 79.32 413.10 84.47 C 407.49 84.53 401.88 84.48 396.28 84.51 C 393.51 79.67 390.63 74.91 387.66 70.20 C 384.60 70.16 381.54 70.15 378.49 70.15 C 378.49 74.94 378.48 79.73 378.50 84.51 C 373.59 84.48 368.69 84.51 363.78 84.48 C 364.58 69.51 364.58 54.48 363.78 39.50 M 378.50 51.44 C 378.49 53.80 378.49 56.17 378.50 58.54 C 384.32 58.35 390.20 58.90 395.97 58.01 C 397.56 57.77 399.76 56.99 399.62 55.01 C 399.87 52.97 397.64 52.11 396.01 51.91 C 390.21 51.13 384.33 51.61 378.50 51.44 Z" />
<path fill="#1ed760" opacity="1.00" d=" M 475.58 39.48 C 491.66 39.53 507.74 39.41 523.82 39.53 C 523.73 43.25 523.74 46.97 523.77 50.69 C 512.73 50.71 501.69 50.62 490.66 50.72 C 489.74 52.39 490.45 54.74 490.28 56.67 C 500.00 56.74 509.72 56.69 519.44 56.35 C 519.45 59.92 519.45 63.48 519.42 67.05 C 509.71 66.53 499.98 66.62 490.27 66.67 C 490.26 68.84 490.26 71.02 490.28 73.21 C 501.66 73.19 513.03 72.86 524.40 72.48 C 523.82 76.44 523.66 80.45 523.81 84.46 C 507.73 84.56 491.65 84.46 475.58 84.50 C 476.28 69.50 476.28 54.48 475.58 39.48 Z" />
</g>
</svg>
